<svg xmlns="http://www.w3.org/2000/svg" viewBox="0 0 64 64" role="img" aria-label="Checkers Arena">
  <defs>
    <linearGradient id="bg" x1="8" y1="6" x2="58" y2="60" gradientUnits="userSpaceOnUse">
      <stop stop-color="#172033"/>
      <stop offset="1" stop-color="#020617"/>
    </linearGradient>
    <linearGradient id="cyan" x1="13" y1="10" x2="55" y2="56" gradientUnits="userSpaceOnUse">
      <stop stop-color="#5eead4"/>
      <stop offset=".52" stop-color="#38bdf8"/>
      <stop offset="1" stop-color="#60a5fa"/>
    </linearGradient>
    <linearGradient id="lightPiece" x1="22" y1="20" x2="41" y2="43" gradientUnits="userSpaceOnUse">
      <stop stop-color="#ffffff"/>
      <stop offset=".62" stop-color="#dff7ff"/>
      <stop offset="1" stop-color="#7dd3fc"/>
    </linearGradient>
    <filter id="glow" x="-35%" y="-35%" width="170%" height="170%" color-interpolation-filters="sRGB">
      <feGaussianBlur stdDeviation="2.4" result="blur"/>
      <feMerge>
        <feMergeNode in="blur"/>
        <feMergeNode in="SourceGraphic"/>
      </feMerge>
    </filter>
  </defs>
  <rect width="64" height="64" rx="15" fill="url(#bg)"/>
  <rect x="5.5" y="5.5" width="53" height="53" rx="12" fill="none" stroke="url(#cyan)" stroke-width="3"/>
  <g transform="rotate(-8 32 32)">
    <rect x="15" y="13" width="34" height="34" rx="7" fill="#08111f" stroke="rgba(94,234,212,.56)" stroke-width="2"/>
    <path fill="#e0f2fe" d="M21 19h11v11H21zM32 30h11v11H32z"/>
    <path fill="#0f172a" d="M32 19h11v11H32zM21 30h11v11H21z"/>
  </g>
  <circle cx="32" cy="36" r="13" fill="#020617" opacity=".7"/>
  <circle cx="32" cy="34" r="12" fill="url(#lightPiece)" filter="url(#glow)"/>
  <circle cx="32" cy="34" r="8.2" fill="none" stroke="#0e7490" stroke-width="2.4" opacity=".72"/>
  <path d="M25 29.5c2.1-2.1 4.5-3.1 7.2-3.1 2.6 0 5 1 7.1 3.1" fill="none" stroke="#ffffff" stroke-width="2.4" stroke-linecap="round" opacity=".78"/>
</svg>
